<svg xmlns="http://www.w3.org/2000/svg" viewBox="0 0 64 64"><g id="_20-Shuffle" data-name="20-Shuffle"><polygon points="63 50 63 54 53 63 53 59 63 50" style="fill:#1c69a1"/><path d="M30.11,30.99A18.009,18.009,0,0,1,48,15h5v4H48A18,18,0,0,0,30.45,33.01,19.158,19.158,0,0,1,30.11,31Z" style="fill:#fa5f07"/><polygon points="63 12 63 16 53 25 53 21 63 12" style="fill:#fa5f07"/><path d="M27.93,46.15A19.287,19.287,0,0,1,10,58H1V55h9a19.987,19.987,0,0,0,17.27-9.92C27.48,45.44,27.7,45.8,27.93,46.15Z" style="fill:#d65106"/><path d="M24,33a23.825,23.825,0,0,0,3.27,12.08A19.987,19.987,0,0,1,10,55H1V49H9A15.005,15.005,0,0,0,24,34Z" style="fill:#fd9c04"/><path d="M48,15A18.009,18.009,0,0,0,30.11,30.99,18.662,18.662,0,0,1,30,29V27a19.9,19.9,0,0,0-1.6-7.84A23.964,23.964,0,0,1,48,9h5V3l10,9L53,21V15Z" style="fill:#ffdb02"/><path d="M29.35,44.09A23.923,23.923,0,0,0,48,53h5v4H48A23.951,23.951,0,0,1,27.93,46.15c-.23-.35-.45-.71-.66-1.07A23.825,23.825,0,0,1,24,33c0-.66.03-1.32.09-1.97.05.67.14,1.32.25,1.97v.01a23.747,23.747,0,0,0,4.06,9.83c.3.42.61.84.95,1.24Z" style="fill:#2a84c9"/><path d="M24.09,31.02v.01c-.06.65-.09,1.31-.09,1.97V32A15.005,15.005,0,0,0,9,17H1V13H9A15.005,15.005,0,0,1,24,28v1c0,.67.03,1.34.09,2Z" style="fill:#2a84c9"/><path d="M63,50,53,59V53H48a23.923,23.923,0,0,1-18.65-8.91v-.01c-.34-.4-.65-.82-.95-1.24a23.747,23.747,0,0,1-4.06-9.83V33c-.11-.65-.2-1.3-.25-1.97V31c-.06-.66-.09-1.33-.09-2V28A15.005,15.005,0,0,0,9,13H1V7h9A20,20,0,0,1,30,27v2a18.662,18.662,0,0,0,.11,1.99V31a19.158,19.158,0,0,0,.34,2.01A18.015,18.015,0,0,0,48,47h5V41Z" style="fill:#48befd"/><path d="M24,33v1a14.907,14.907,0,0,1-2.148,7.7l.1.209a6.017,6.017,0,0,1-2.05,7.688A12.685,12.685,0,0,1,13,52H1v3h9a19.987,19.987,0,0,0,17.27-9.92A23.825,23.825,0,0,1,24,33Z" style="fill:#ed9204"/><path d="M24,29V28A15.007,15.007,0,0,0,10.52,13.077,2,2,0,0,1,10,17H9A15.005,15.005,0,0,1,24,32v1c0-.66.03-1.32.09-1.97V31C24.03,30.34,24,29.67,24,29Z" style="fill:#1c69a1"/><path d="M45,53.719a3.28,3.28,0,0,0-.15-.932,23.937,23.937,0,0,1-15.5-8.7v-.01c-.34-.4-.65-.82-.95-1.24a23.747,23.747,0,0,1-4.06-9.83V33c-.11-.65-.2-1.3-.25-1.97-.06.65-.09,1.31-.09,1.97a23.825,23.825,0,0,0,3.27,12.08c.21.36.43.72.66,1.07a23.98,23.98,0,0,0,15.423,10.4A3.269,3.269,0,0,0,45,53.719Z" style="fill:#1c69a1"/><path d="M46,17a2,2,0,0,1,2-2A18.009,18.009,0,0,0,30.11,30.99V31a19.158,19.158,0,0,0,.34,2.01A18,18,0,0,1,48,19,2,2,0,0,1,46,17Z" style="fill:#d65106"/><path d="M42.714,49.428a4.376,4.376,0,0,0-.086-3.261A18.035,18.035,0,0,1,30.45,33.01,19.158,19.158,0,0,1,30.11,31v-.01A18.662,18.662,0,0,1,30,29V27a19.774,19.774,0,0,0-3.5-11.276,4.9,4.9,0,0,0-5.816,2.889A14.921,14.921,0,0,1,24,28v1c0,.67.03,1.34.09,2v.03c.05.67.14,1.32.25,1.97v.01a23.747,23.747,0,0,0,4.06,9.83c.3.42.61.84.95,1.24v.01a24.017,24.017,0,0,0,11.187,7.716A4.349,4.349,0,0,0,42.714,49.428Z" style="fill:#6bdcff"/><path d="M32.651,17.889a3.953,3.953,0,0,1-.369-3.012A24.157,24.157,0,0,0,28.4,19.16,19.9,19.9,0,0,1,30,27v2a18.662,18.662,0,0,0,.11,1.99,17.978,17.978,0,0,1,5.618-11.14A3.933,3.933,0,0,1,32.651,17.889Z" style="fill:#fab503"/><path d="M10,7A20,20,0,0,1,30,27v2a18.662,18.662,0,0,0,.11,1.99V31A18.01,18.01,0,0,0,48,47h5V41l10,9L53,59V53H48A24.009,24.009,0,0,1,24.09,31.03V31c-.06-.66-.09-1.33-.09-2V28A15.005,15.005,0,0,0,9,13H1V7H4" style="fill:none;stroke:#000;stroke-linejoin:round;stroke-width:2px"/><line x1="6" y1="7" x2="8" y2="7" style="fill:none;stroke:#000;stroke-linejoin:round;stroke-width:2px"/><path d="M28.4,19.16A23.964,23.964,0,0,1,48,9h5V3l10,9L53,21V15H48A18.009,18.009,0,0,0,30.11,30.99V31" style="fill:none;stroke:#000;stroke-linejoin:round;stroke-width:2px"/><path d="M53,53v4H48A24.019,24.019,0,0,1,24,33c0-.66.03-1.32.09-1.97A24.009,24.009,0,0,0,48,53Z" style="fill:none;stroke:#000;stroke-linejoin:round;stroke-width:2px"/><path d="M24.09,31v.03" style="fill:none;stroke:#000;stroke-linejoin:round;stroke-width:2px"/><path d="M22.268,41A15,15,0,0,1,9,49H1v6h9a19.987,19.987,0,0,0,17.27-9.92" style="fill:none;stroke:#000;stroke-linejoin:round;stroke-width:2px"/><polyline points="63 50 63 54 53 63 53 59 53 57" style="fill:none;stroke:#000;stroke-linejoin:round;stroke-width:2px"/><path d="M1,13v4H9A15.005,15.005,0,0,1,24,32v1" style="fill:none;stroke:#000;stroke-linejoin:round;stroke-width:2px"/><line x1="53" y1="9" x2="53" y2="7" style="fill:none;stroke:#000;stroke-linejoin:round;stroke-width:2px"/><line x1="24.34" y1="33.01" x2="24.34" y2="33" style="fill:none;stroke:#000;stroke-linejoin:round;stroke-width:2px"/><path d="M1,55v3h9A19.3,19.3,0,0,0,28,46" style="fill:none;stroke:#000;stroke-linejoin:round;stroke-width:2px"/><path d="M36.687,23A17.838,17.838,0,0,0,35,24.553" style="fill:none;stroke:#000;stroke-linejoin:round;stroke-width:2px"/><path d="M63,12v4L53,25V19H48a17.911,17.911,0,0,0-10,3.032" style="fill:none;stroke:#000;stroke-linejoin:round;stroke-width:2px"/><line x1="29.35" y1="44.09" x2="29.35" y2="44.08" style="fill:none;stroke:#000;stroke-linejoin:round;stroke-width:2px"/></g></svg>