<?xml version="1.0" encoding="utf-8"?>
<!-- Generator: Adobe Illustrator 21.1.0, SVG Export Plug-In . SVG Version: 6.00 Build 0)  -->
<svg version="1.1" id="Layer_1" xmlns="http://www.w3.org/2000/svg" xmlns:xlink="http://www.w3.org/1999/xlink" x="0px" y="0px"
	 viewBox="0 0 64 64" style="enable-background:new 0 0 64 64;" xml:space="preserve">
<style type="text/css">
	.st0{fill:#FFFFFF;}
	.st1{fill:#ACBDC5;}
	.st2{fill:#FF6C58;}
	.st3{fill-rule:evenodd;clip-rule:evenodd;fill:#314A52;}
	.st4{fill:#D7385E;}
</style>
<g id="Playing-Cards">
	<path class="st0" d="M6,12c0-3.3,2.7-6,6-6h28c3.3,0,6,2.7,6,6v44c0,3.3-2.7,6-6,6H12c-3.3,0-6-2.7-6-6V12z"/>
	<path class="st1" d="M16.7,6c1-4,5-6.6,9.1-5.9l27.6,4.7c4.4,0.7,7.3,4.9,6.5,9.2l-7.4,43.3c-0.7,4.3-4.9,7.3-9.2,6.5L36,62.6V64
		H12c-4.4,0-8-3.6-8-8V12c0-4.4,3.6-8,8-8h4v4h-4c-2.2,0-4,1.8-4,4v32c0,2.2,4.5,4,10,4c14.4,0,26-10.7,26-24v32c0,3.3-2.7,6-6,6h2
		c3.3,0,6-2.7,6-6V12c0-3.3-2.7-6-6-6H16.7z"/>
	<path class="st2" d="M46,7.6l6.7,1.1c2.2,0.4,3.6,2.4,3.3,4.6l-7.4,43.3c-0.2,1.4-1.2,2.6-2.5,3.1V7.6z M17.4,34.4L26,43l8.6-8.6
		c0.9-0.9,1.4-2.2,1.4-3.5c0-2.7-2.2-4.9-4.9-4.9c-1.3,0-2.6,0.5-3.5,1.4L26,29l-1.6-1.6c-0.9-0.9-2.2-1.4-3.5-1.4
		c-2.7,0-4.9,2.2-4.9,4.9C16,32.3,16.5,33.5,17.4,34.4z M19.4,15.5c0.4-0.4,0.6-0.9,0.6-1.4V14c0-1.1-0.9-2-2-2
		c-0.5,0-1,0.2-1.4,0.6L16,13.2l-0.6-0.6C15,12.2,14.5,12,14,12c-1.1,0-2,0.9-2,2v0.1c0,0.5,0.2,1,0.6,1.4L16,19L19.4,15.5z"/>
	<path class="st3" d="M40,8H16V4h24c4.4,0,8,3.6,8,8v44c0,4.4-3.6,8-8,8h-4v-4h4c2.2,0,4-1.8,4-4V12C44,9.8,42.2,8,40,8z"/>
	<path class="st4" d="M32.6,52.5L36,49l3.4,3.5c0.4,0.4,0.6,0.9,0.6,1.4V54c0,1.1-0.9,2-2,2c-0.5,0-1-0.2-1.4-0.6L36,54.8l-0.6,0.6
		C35,55.8,34.5,56,34,56c-1.1,0-2-0.9-2-2v-0.1C32,53.4,32.2,52.9,32.6,52.5z"/>
</g>
</svg>
