<?xml version="1.0" encoding="UTF-8"?>
<!DOCTYPE svg PUBLIC "-//W3C//DTD SVG 1.1//EN" "http://www.w3.org/Graphics/SVG/1.1/DTD/svg11.dtd">
<!-- Creator: CorelDRAW -->
<svg xmlns="http://www.w3.org/2000/svg" xml:space="preserve" width="2048px" height="2048px" style="shape-rendering:geometricPrecision; text-rendering:geometricPrecision; image-rendering:optimizeQuality; fill-rule:evenodd; clip-rule:evenodd"
viewBox="0 0 2048 2048"
 xmlns:xlink="http://www.w3.org/1999/xlink">
 <defs>
  <style type="text/css">
   <![CDATA[
    .fil2 {fill:none}
    .fil1 {fill:#0288D1}
    .fil0 {fill:#03A9F4}
    .fil9 {fill:#616161}
    .fil10 {fill:#689F38}
    .fil12 {fill:#757575}
    .fil11 {fill:#8BC34A}
    .fil8 {fill:#A1887F}
    .fil7 {fill:#616161;fill-rule:nonzero}
    .fil6 {fill:#A1887F;fill-rule:nonzero}
    .fil3 {fill:#BDBDBD;fill-rule:nonzero}
    .fil5 {fill:#C60404;fill-rule:nonzero}
    .fil4 {fill:#D50000;fill-rule:nonzero}
   ]]>
  </style>
   <clipPath id="id0">
    <path d="M1024 -0.0011811c565.541,0 1024,458.461 1024,1024 0,565.541 -458.461,1024 -1024,1024 -565.541,0 -1024,-458.461 -1024,-1024 0,-565.541 458.461,-1024 1024,-1024z"/>
   </clipPath>
 </defs>
 <g id="Layer_x0020_1">
  <metadata id="CorelCorpID_0Corel-Layer"/>
  <path class="fil0" d="M1024 -0.0011811c565.541,0 1024,458.461 1024,1024 0,565.541 -458.461,1024 -1024,1024 -565.541,0 -1024,-458.461 -1024,-1024 0,-565.541 458.461,-1024 1024,-1024z"/>
  <g style="clip-path:url(#id0)">
   <g id="_466414288">
    <g>
     <polygon id="_4625378321" class="fil1" points="1448.45,904.169 2584.33,2040.05 2584.33,2617.76 1448.45,1481.88 "/>
     <polygon id="_462537424" class="fil1" points="1502.26,1496.5 2638.14,2632.38 2639.19,2633.48 2640.2,2634.61 2641.17,2635.77 2642.11,2636.96 2643.01,2638.18 2643.88,2639.43 2644.71,2640.7 1508.83,1504.82 1508,1503.54 1507.13,1502.3 1506.23,1501.08 1505.29,1499.89 1504.31,1498.73 1503.3,1497.6 "/>
     <polygon id="_462535672" class="fil1" points="1573.08,1515.74 2708.96,2651.62 2711.37,2654.26 2713.51,2657.13 2715.38,2660.19 2716.95,2663.44 2718.2,2666.85 2719.12,2670.41 2719.69,2674.09 2719.88,2677.88 2719.88,2715.05 1584,1579.17 1584,1541.99 1583.81,1538.21 1583.24,1534.52 1582.32,1530.97 1581.07,1527.56 1579.5,1524.31 1577.63,1521.25 1575.48,1518.38 "/>
     <polygon id="_462535960" class="fil1" points="1584,1579.17 2719.88,2715.05 2626.79,2715.05 1490.91,1579.17 "/>
     <polygon id="_462534904" class="fil1" points="1490.91,1579.17 2626.79,2715.05 2600.61,2715.05 1464.73,1579.17 "/>
     <polygon id="_462535768" class="fil1" points="1464.73,1579.17 2600.61,2715.05 2579.07,2715.05 1443.19,1579.17 "/>
     <polygon id="_462535840" class="fil1" points="1443.19,1579.17 2579.07,2715.05 2523.25,2715.05 1387.37,1579.17 "/>
     <polygon id="_462535864" class="fil1" points="1387.37,1579.17 2523.25,2715.05 2505.44,2715.05 1369.56,1579.17 "/>
     <polygon id="_462535936" class="fil1" points="589.932,862.094 1725.81,1997.98 1599.88,1997.98 464,862.094 "/>
     <polygon id="_462536128" class="fil1" points="1079.31,1579.17 2215.19,2715.05 1929.02,2715.05 793.138,1579.17 "/>
     <polygon id="_462537760" class="fil1" points="793.138,1579.17 1929.02,2715.05 1884.19,2715.05 748.31,1579.17 "/>
     <polygon id="_462536296" class="fil1" points="748.31,1579.17 1884.19,2715.05 1844.24,2715.05 708.357,1579.17 "/>
     <polygon id="_462534880" class="fil1" points="708.357,1579.17 1844.24,2715.05 1776.46,2715.05 640.578,1579.17 "/>
     <polygon id="_462536368" class="fil1" points="640.578,1579.17 1776.46,2715.05 1776.25,2715.05 640.369,1579.17 "/>
     <polygon id="_462535384" class="fil1" points="640.369,1579.17 1776.25,2715.05 1703.22,2715.05 567.337,1579.17 "/>
     <polygon id="_462535240" class="fil1" points="567.337,1579.17 1703.22,2715.05 1635.44,2715.05 499.561,1579.17 "/>
     <polygon id="_462537064" class="fil1" points="1369.56,1579.17 2505.44,2715.05 2215.19,2715.05 1079.31,1579.17 "/>
     <polygon id="_462537712" class="fil1" points="1574.38,862.094 2710.27,1997.98 2584.33,1997.98 1448.45,862.094 "/>
     <polygon id="_462536800" class="fil1" points="1448.45,862.094 2584.33,1997.98 2584.33,2040.05 1448.45,904.169 "/>
    </g>
    <path id="_466414696" class="fil1" d="M1448.45 904.169l0 577.713 19.1268 0c17.3351,0 32.6268,9.18898 41.2465,22.937l38.0008 0c20.4449,0 37.1729,16.728 37.1729,37.174l0 37.174 -93.0863 0 -26.1886 0 -21.5339 0 -55.8213 0 -17.8122 0 -290.249 0 -286.171 0 -44.8276 0 -39.9532 0 -67.7788 0 -0.209055 0 -73.0323 0 -67.7764 0 0 -37.174c0,-20.4461 16.7291,-37.174 37.174,-37.174l34.4492 0c4.58977,-7.32048 11.0717,-13.3488 18.7465,-17.3858l0 -583.264 0.0011811 -42.0744 -125.932 0 559.639 -393.261 0.361418 0.257481 550.385 393.004 -125.933 0 0.0011811 42.0744z"/>
   </g>
  </g>
  <path class="fil2" d="M1024 -0.0011811c565.541,0 1024,458.461 1024,1024 0,565.541 -458.461,1024 -1024,1024 -565.541,0 -1024,-458.461 -1024,-1024 0,-565.541 458.461,-1024 1024,-1024z"/>
  <polygon class="fil3" points="1448.45,904.169 1448.45,1535.63 1448.45,1558.22 1425.86,1558.22 1358.08,1558.22 1358.08,1535.63 1358.08,1083.61 1358.08,1061.01 1335.48,1061.01 1108.96,1061.01 1086.37,1061.01 1086.37,1083.61 1086.37,1535.63 1086.37,1558.22 612.524,1558.22 589.932,1558.22 589.93,1535.63 589.93,904.169 589.932,856.733 612.524,856.733 1425.86,856.733 1448.45,856.733 "/>
  <polygon class="fil4" points="463.999,862.094 1023.64,468.833 1574.38,862.094 "/>
  <polygon class="fil5" points="464,862.094 1023.64,468.833 1024,469.091 1024,862.094 "/>
  <polygon class="fil6" points="996.596,1061.19 725.487,1061.19 725.487,1332.3 996.596,1332.3 "/>
  <path class="fil7" d="M989.535 1068.25l-256.989 0 0 256.988 256.989 0 0 -256.988zm-264.049 -14.1213l271.109 0 7.05945 0 0 7.06064 0 271.109 0 7.06064 -7.05945 0 -271.109 0 -7.06064 0 0 -7.06064 0 -271.109 0 -7.06064 7.06064 0z"/>
  <polygon class="fil4" points="1032.39,1054.13 689.688,1054.13 689.688,1076.72 1032.39,1076.72 "/>
  <polygon class="fil8" points="1086.37,1083.61 1086.37,1535.63 1086.37,1558.22 1358.08,1558.22 1358.08,1535.63 1358.08,1083.61 1358.08,1061.01 1335.48,1061.01 1108.96,1061.01 1086.37,1061.01 "/>
  <path class="fil7" d="M1093.43 1076.55l0 452.026 0 15.5327 257.586 0 0 -15.5327 0 -452.026 0 -15.5327 -15.5327 0 -226.521 0 -15.5315 0 0 15.5327zm-14.1213 452.026l0 -452.026 0 -22.5933 0 -7.06064 7.06064 0 22.5921 0 226.521 0 22.5933 0 7.06064 0 0 7.06064 0 22.5933 0 452.026 0 22.5921 0 7.06064 -7.06064 0 -271.707 0 -7.06064 0 0 -7.06064 0 -22.5921z"/>
  <rect class="fil9" x="640.579" y="1541.99" width="824.147" height="37.1739"/>
  <path class="fil10" d="M603.406 1504.82l-66.6709 0c-20.4449,0 -37.174,16.728 -37.174,37.174l0 37.174 140.809 0c0.116929,0 0.209055,-0.0944883 0.209055,-0.209055l0 -36.965c0,-20.4461 -16.728,-37.174 -37.1729,-37.174z"/>
  <path class="fil10" d="M770.881 1534.4l-40.1422 0c-12.3106,0 -22.3819,10.0724 -22.3819,22.3819l0 22.3831 84.7808 0c0.0696851,0 0.125197,-0.0543308 0.125197,-0.125197l0 -22.2579c0,-12.3095 -10.0713,-22.3819 -22.3819,-22.3819z"/>
  <path class="fil11" d="M699.667 1481.88l-87.2375 0c-26.7544,0 -48.6414,21.8882 -48.6414,48.6426l0 45.0933c0,1.95118 1.59567,3.54922 3.54922,3.54922l180.973 0 0 -48.6426c0,-26.7544 -21.8894,-48.6426 -48.6437,-48.6426z"/>
  <path class="fil10" d="M1436.01 1481.88l31.5673 0c26.7544,0 48.6426,21.8882 48.6426,48.6426l0 23.3339c0,13.9205 -11.3882,25.3087 -25.3087,25.3087l-103.544 0 0 -48.6426c0,-26.7544 21.8882,-48.6426 48.6426,-48.6426z"/>
  <path class="fil11" d="M1480.16 1504.82l66.6709 0c20.4449,0 37.1729,16.728 37.1729,37.174l0 37.174 -140.809 0c-0.115748,0 -0.209055,-0.0944883 -0.209055,-0.209055l0 -36.965c0,-20.4461 16.7291,-37.174 37.174,-37.174z"/>
  <rect class="fil12" x="1079.31" y="1558.23" width="290.249" height="20.9417"/>
  <ellipse class="fil9" cx="1139.66" cy="1301.58" rx="23.1317" ry="23.1317"/>
 </g>
</svg>
