<svg xmlns="http://www.w3.org/2000/svg" viewBox="0 0 48 48"><defs><style>.cls-1{fill:#ffbc5a;}.cls-2{fill:#ef9d3a;}.cls-3{fill:#505572;}.cls-4{fill:#231f20;}</style></defs><title>Euro Coin</title><g id="Euro_Coin" data-name="Euro Coin"><path class="cls-1" d="M24,1A23,23,0,1,0,47,24,23.0256,23.0256,0,0,0,24,1Z"/><path class="cls-2" d="M24,5A19,19,0,1,0,43,24,19.0216,19.0216,0,0,0,24,5Z"/><path class="cls-1" d="M24,39A15,15,0,1,1,39,24,15.0164,15.0164,0,0,1,24,39Z"/><path class="cls-3" d="M24,22H15a1,1,0,0,1,0-2h9a1,1,0,0,1,0,2Z"/><path class="cls-3" d="M24,27H15a1,1,0,0,1,0-2h9a1,1,0,0,1,0,2Z"/><path class="cls-3" d="M27.3643,33.5762A9.5871,9.5871,0,1,1,32.542,15.9307a1,1,0,0,1-1.084,1.6816,7.6283,7.6283,0,0,0-9.4756,1.0127,7.5975,7.5975,0,0,0,0,10.7432A7.63,7.63,0,0,0,31.458,30.38a1,1,0,0,1,1.084,1.6816A9.5568,9.5568,0,0,1,27.3643,33.5762Z"/><path class="cls-4" d="M24,1A23,23,0,1,0,47,24,23.0256,23.0256,0,0,0,24,1Zm0,44A21,21,0,1,1,45,24,21.0242,21.0242,0,0,1,24,45Z"/><path class="cls-4" d="M24,5A19,19,0,1,0,43,24,19.0216,19.0216,0,0,0,24,5Zm0,36A17,17,0,1,1,41,24,17.019,17.019,0,0,1,24,41Z"/><path class="cls-4" d="M31.458,17.6123a1,1,0,0,0,1.084-1.6816A9.5736,9.5736,0,0,0,18.6357,20H15a1,1,0,0,0,0,2h2.9694a9.4686,9.4686,0,0,0-.1577,3H15a1,1,0,0,0,0,2h3.2436A9.6113,9.6113,0,0,0,32.542,32.0615,1,1,0,0,0,31.458,30.38,7.587,7.587,0,0,1,20.377,27H24a1,1,0,0,0,0-2H19.8314a7.27,7.27,0,0,1,.1979-3H24a1,1,0,0,0,0-2H20.9a7.5636,7.5636,0,0,1,10.558-2.3877Z"/></g></svg>