<?xml version="1.0" encoding="utf-8"?>
<!-- Generator: Adobe Illustrator 24.0.1, SVG Export Plug-In . SVG Version: 6.00 Build 0)  -->
<svg version="1.1" xmlns="http://www.w3.org/2000/svg" xmlns:xlink="http://www.w3.org/1999/xlink" x="0px" y="0px"
	 viewBox="0 0 194.2 249.7" style="enable-background:new 0 0 194.2 249.7;" xml:space="preserve">
<style type="text/css">
	.st0{display:none;}
	.st1{display:inline;fill:#F7F8FC;}
	.st2{display:inline;}
	.st3{fill:#F7F8FC;}
	.st4{fill:#FFFFFF;stroke:#0561FC;stroke-width:10.0091;}
	.st5{fill:#9AC7F7;}
	.st6{fill:#C5E1F9;stroke:#0561FC;stroke-width:10.0091;}
	.st7{fill:none;stroke:#0561FC;stroke-width:10.0091;}
	.st8{fill:#9AC7F7;stroke:#0561FC;stroke-width:10.0091;}
	.st9{fill:#FFFFFF;stroke:#0561FC;stroke-width:10.0091;stroke-linejoin:round;}
	.st10{fill:#C5E1F9;}
	.st11{fill:#FFFFFF;}
	.st12{fill:none;stroke:#0561FC;stroke-width:10.0091;stroke-linejoin:bevel;}
</style>
<g id="Layer_2">
</g>
<g id="Layer_3">
</g>
<g id="Layer_4">
	<g>
		<path class="st6" d="M5.1,249.7v-9c0-28.4,22.9-51.3,51.2-51.3H130c28.3,0,51.2,23,51.2,51.3v9"/>
		<path class="st4" d="M93.2,225.6c-12.7,0-22.9-10.3-22.9-23V79.7c0-12.7,10.3-23,22.9-23l0,0c12.7,0,22.9,10.3,22.9,23v122.9
			C116.1,215.3,105.8,225.6,93.2,225.6L93.2,225.6z"/>
		<path class="st8" d="M189.2,85.3c0-15.4-10.1-28.5-24.1-33.5c0.5-1.7,0.8-3.5,0.8-5.3c0-11.2-9.3-20.2-20.7-20.2
			c-0.2,0-0.3,0-0.5,0C131.6,13.2,113.5,5,93.5,5C58.3,5,28.9,30.4,22.6,63.9C12,70.2,5,81.4,5,94.3c0,11.4,5.5,21.5,14.1,28
			c-1.5,3.3-2.4,6.9-2.4,10.7c0,16.2,15.5,29.3,34.6,29.3c19.1,0,34.6-13.1,34.6-29.3c0-1.5-0.2-2.9-0.4-4.3h50.8
			c1,10.8,10,19.2,21,19.2c11.7,0,21.1-9.5,21.1-21.2c0-4.8-1.6-9.2-4.3-12.7C183.3,107.6,189.2,97.2,189.2,85.3z"/>
		<path class="st11" d="M157.6,82.9v35.3c0,31.4-28.7,56.8-64.1,56.8l0,0c-35.4,0-64.1-25.4-64.1-56.8V79.9l28-15.4l10.8-17.9
			l5.7-11.1l6.7,11.1l27.6,23.9l27.6,7.8l21.7,2"/>
		<path class="st4" d="M153.1,83.4c2.1-0.8,4.4-1.2,6.7-1.2c10.8,0,19.5,8.8,19.5,19.6c0,10.8-8.8,19.6-19.5,19.6"/>
		<path class="st4" d="M33.1,121.4c-10.8,0-19.5-8.8-19.5-19.6c0-10.8,8.7-19.6,19.5-19.6"/>
		<path class="st7" d="M157.6,81v29.8c0,35.5-28.7,64.3-64.1,64.3l0,0c-35.4,0-64.1-28.8-64.1-64.3V81"/>
		<path class="st7" d="M76.7,146.5c12.9,5.2,26.8,4,38.2-2.1"/>
		<path class="st12" d="M158.1,82.5c-27.6,1.6-61.2-7.4-74.3-35.9l-9-19.6c-2.9,21-15.5,40.6-35.6,51.1c-4.2,2.2-7.4,3.7-12.3,5.4"
			/>
		<line class="st7" x1="74.6" y1="98.5" x2="62.9" y2="98.5"/>
		<line class="st7" x1="121.4" y1="98.5" x2="109.7" y2="98.5"/>
		<polyline class="st7" points="102,124.2 89.5,124.2 89.5,91.8 		"/>
	</g>
</g>
</svg>
